<svg width="1450" height="1282" viewBox="0 0 1450 1282" fill="none" xmlns="http://www.w3.org/2000/svg">
<path d="M1243.27 539.871C1249.46 532.45 1257 523.297 1260.09 519.71C1263.19 516 1266.28 513.526 1266.77 514.145C1267.39 514.639 1269 520.081 1270.36 526.266C1271.72 532.45 1274.44 546.797 1276.42 558.423C1278.4 569.925 1280.87 587.241 1281.86 596.764C1282.98 606.288 1284.34 626.077 1285.2 640.671C1286.19 659.842 1286.19 674.684 1285.2 693.854C1284.46 708.449 1282.98 727.991 1281.86 737.143C1280.87 746.295 1278.65 761.879 1276.92 771.774C1275.31 781.668 1271.47 799.726 1268.38 811.97C1265.41 824.215 1259.85 843.386 1256.14 854.641C1252.43 865.896 1245.62 883.953 1241.17 894.837C1236.59 905.721 1228.31 923.779 1222.62 935.034C1216.93 946.289 1207.16 964.099 1200.73 974.612C1194.42 985.125 1184.52 1000.46 1178.83 1008.62C1173.14 1016.79 1163.37 1029.9 1157.31 1037.69C1151.13 1045.48 1141.11 1057.73 1134.93 1064.9C1128.87 1072.07 1113.53 1088.15 1100.91 1100.77C1088.17 1113.38 1070.98 1129.59 1062.45 1136.76C1053.91 1143.93 1040.06 1155.06 1031.53 1161.5C1022.99 1167.93 1010.5 1176.96 1003.7 1181.41C996.895 1185.98 985.145 1193.28 977.724 1197.86C970.303 1202.31 954.347 1210.97 942.474 1216.9C930.6 1222.96 914.15 1230.63 905.987 1234.1C897.824 1237.56 884.219 1242.75 875.684 1245.85C867.15 1248.94 852.432 1253.76 842.908 1256.48C833.384 1259.2 818.047 1263.16 808.895 1265.26C799.742 1267.37 785.766 1270.21 777.974 1271.57C770.182 1272.81 755.092 1275.04 744.579 1276.4C734.066 1277.63 714.895 1279.36 701.908 1280.23C687.313 1281.1 665.792 1281.34 645.013 1280.97C626.708 1280.6 602.219 1279.36 590.592 1278.25C579.09 1277.26 562.887 1275.53 554.724 1274.54C546.561 1273.43 531.842 1271.2 521.947 1269.47C509.455 1267.37 501.663 1265.26 496.345 1262.79C491.892 1260.69 488.553 1258.34 488.553 1257.22C488.553 1256.24 489.295 1255 490.161 1254.5C490.903 1253.89 508.59 1253.14 529.369 1252.65C550.147 1252.28 575.75 1250.92 586.263 1249.93C596.776 1248.81 614.587 1246.46 625.842 1244.73C637.097 1243 652.929 1240.16 661.092 1238.55C669.255 1236.82 683.726 1233.48 693.25 1231C702.774 1228.65 718.605 1224.2 728.5 1221.11C738.395 1218.14 755.34 1212.2 766.224 1208.12C777.108 1203.92 794.053 1196.99 803.947 1192.66C813.842 1188.33 830.787 1180.05 841.671 1174.48C852.555 1168.79 869.253 1159.64 878.776 1153.95C888.3 1148.26 904.997 1137.75 915.882 1130.45C926.766 1123.15 939.011 1114.5 943.092 1111.16C947.174 1107.94 957.44 1099.04 965.974 1091.37C974.508 1083.82 986.134 1072.57 991.947 1066.63C997.761 1060.57 1007.53 1049.81 1013.59 1042.64C1019.78 1035.46 1028.68 1024.33 1033.51 1017.9C1038.33 1011.47 1046.49 999.719 1051.56 991.927C1056.76 984.135 1064.8 970.407 1069.74 961.625C1074.57 952.72 1082.24 937.136 1086.69 926.995C1091.14 916.729 1097.82 899.537 1101.53 888.653C1105.12 877.769 1110.07 860.825 1112.54 850.93C1114.89 841.036 1118.23 824.586 1119.96 814.444C1121.69 804.178 1123.92 787.234 1125.03 776.721C1126.39 763.487 1127.01 749.14 1126.76 730.34C1126.52 715.375 1126.39 699.544 1126.39 695.091C1126.39 688.907 1127.26 685.197 1129.98 679.013C1131.96 674.56 1137.52 665.655 1142.35 659.223C1147.05 652.792 1156.57 640.795 1163.37 632.632C1170.18 624.469 1188.48 603.319 1204.07 585.633C1219.53 567.946 1237.21 547.291 1243.27 539.871Z" fill="white"/>
<path d="M1351.13 244.89C1367.33 227.574 1382.54 211.496 1385.02 209.393V209.269C1387.49 207.167 1390.21 205.312 1391.08 205.312C1391.94 205.312 1392.68 206.425 1392.68 207.785C1392.68 209.146 1390.83 212.609 1388.6 215.453C1386.68 218.012 1368.96 240.79 1347.15 268.813L1336.41 282.613C1309.94 316.625 1275.18 361.151 1259.23 381.558C1243.15 401.966 1216.43 435.607 1199.86 456.386C1183.29 477.164 1156.32 510.434 1139.87 530.471C1123.42 550.507 1097.33 581.923 1081.74 600.351C1066.16 618.78 1043.89 644.753 1032.27 657.987C1020.77 671.221 1001.97 692.37 990.711 704.986C979.455 717.601 963.376 735.412 954.966 744.564C946.432 753.716 926.395 775.113 910.192 792.182C894.113 809.126 861.461 842.273 837.837 865.772C814.09 889.272 783.292 918.955 769.316 931.818C755.34 944.805 734.19 963.976 722.316 974.612C710.442 985.125 689.787 1003.06 676.553 1014.31C663.319 1025.57 643.529 1042.02 632.645 1050.8C621.761 1059.71 601.476 1076.03 587.5 1087.16C573.524 1098.29 554.353 1113.26 544.829 1120.31C535.305 1127.48 520.34 1138.12 511.434 1144.06C502.653 1149.87 490.655 1157.54 484.842 1161C479.029 1164.59 466.29 1171.27 456.395 1175.97C446.5 1180.79 433.142 1186.48 426.711 1188.58C420.279 1190.68 410.261 1193.65 404.447 1195.01C397.274 1196.62 387.379 1197.61 373.526 1198.11C357.2 1198.72 350.645 1198.35 340.75 1196.62C333.947 1195.51 322.569 1192.54 315.395 1190.19C308.221 1187.84 296.347 1182.89 288.803 1179.18C281.382 1175.47 269.632 1168.67 262.829 1164.09C256.026 1159.52 244.4 1150.86 236.855 1144.8C229.434 1138.61 214.221 1124.39 203.09 1113.14C192.082 1101.88 183.053 1092.48 183.053 1092.11C183.053 1091.74 194.061 1091.12 207.419 1090.63C220.9 1090.13 238.092 1089.14 245.513 1088.4C253.058 1087.78 265.303 1086.3 272.724 1085.31C280.269 1084.19 293.626 1081.97 302.408 1080.24C311.313 1078.5 325.166 1075.04 333.329 1072.82C341.492 1070.47 352.871 1066.76 358.684 1064.65C364.497 1062.55 374.516 1058.72 380.947 1055.99C387.379 1053.27 400.737 1046.97 410.632 1042.02C420.526 1037.07 436.111 1028.78 445.263 1023.47C454.416 1018.15 472.226 1007.51 484.842 999.596C497.458 991.68 527.266 972.51 551.013 956.926C574.884 941.342 604.074 921.8 615.947 913.637C627.821 905.474 648.105 891.251 661.092 881.974C674.079 872.822 699.063 854.393 716.75 841.036C734.437 827.802 758.061 809.621 769.316 800.839C780.571 792.058 802.216 774.495 817.553 762.003C832.89 749.511 856.513 729.722 870.119 718.096C883.724 706.47 907.1 686.063 922.066 672.705C937.032 659.471 957.069 641.413 966.592 632.632C976.116 623.974 997.884 603.691 1014.83 587.612C1031.9 571.533 1067.89 536.408 1095.1 509.569C1122.19 482.73 1162.88 441.791 1185.39 418.663C1207.9 395.534 1247.73 353.977 1273.95 326.52C1300.17 298.939 1334.92 262.205 1351.13 244.89Z" fill="white"/>
<path d="M549.776 9.27619C559.3 8.28674 574.018 6.80256 582.553 6.18415C591.087 5.56574 615.329 5.31837 636.355 5.56574C657.876 5.93678 682.984 6.92624 693.497 8.03937C703.887 9.02883 720.584 11.0077 730.603 12.4919C740.745 13.8524 758.679 16.9445 770.553 19.2944C782.426 21.6444 802.216 26.0969 814.461 29.189C826.705 32.281 847.855 38.4651 861.461 42.9176C875.066 47.3702 893.124 53.6779 901.658 56.8937C910.192 60.1094 924.663 65.9224 933.816 69.8803C942.968 73.8381 955.213 79.4038 961.026 82.2484C966.84 85.0931 974.261 90.0404 977.724 93.0088C981.063 95.9771 985.392 101.543 987.371 105.253C989.597 109.706 990.711 113.787 990.711 117.498C990.711 120.59 989.474 125.784 987.866 129.248C986.258 132.711 983.042 136.916 980.692 138.771C978.342 140.626 974.013 143.224 970.921 144.584C967.829 145.945 962.016 147.429 957.934 147.8C953.605 148.294 946.679 148.047 941.237 147.181C936.166 146.316 912.171 139.142 888.053 131.103C863.934 123.063 834.126 113.911 821.882 110.819C809.637 107.851 790.961 103.645 780.447 101.543C769.934 99.5639 755.092 96.9666 747.671 95.9771C740.25 94.864 726.026 93.1324 716.132 92.0193C706.237 90.9062 681.624 89.793 661.092 89.422C637.963 88.9273 616.318 89.2983 603.579 90.1641C592.324 91.0298 576.74 92.3903 568.947 93.5035C561.155 94.4929 548.045 96.3482 539.882 97.8323C531.718 99.1928 516.134 102.409 505.25 105.13C494.366 107.727 478.163 112.179 469.382 115.024C460.6 117.869 446.376 123.063 437.842 126.403C429.308 129.742 415.703 135.803 407.539 139.76C399.376 143.718 386.018 151.016 377.855 155.839C369.692 160.786 357.695 168.455 351.263 173.031C344.832 177.731 334.195 185.894 327.763 191.336C321.332 196.778 309.334 208.156 301.047 216.567C292.884 224.977 282.618 236.356 278.289 241.798C273.961 247.24 265.426 259.237 259.49 268.389C253.429 277.542 243.782 294.486 238.092 306.112C232.403 317.739 225.476 333.199 222.755 340.743C219.911 348.164 215.829 360.78 213.479 368.572C211.253 376.364 208.655 387.742 207.789 393.926C206.8 400.853 206.553 411.86 206.924 422.992C207.418 436.226 208.284 443.276 210.263 450.202C211.747 455.273 215.211 463.93 218.055 469.372C221.642 476.299 225.971 481.988 232.526 488.667C239.947 496.088 244.153 499.18 253.553 503.756C259.984 506.972 269.755 510.806 275.197 512.166C282.247 514.021 290.287 515.011 303.645 515.382C317.25 515.877 326.032 515.506 336.421 514.021C344.213 512.785 356.211 510.435 363.013 508.827C369.816 507.095 386.018 502.395 398.882 498.438C411.745 494.48 435.74 486.564 452.066 480.998C468.392 475.433 495.603 465.662 512.671 459.23C529.616 452.675 555.342 442.533 569.566 436.597C583.789 430.536 603.084 422.373 612.237 418.292C621.39 414.21 640.684 405.553 654.908 398.874C669.132 392.319 699.558 377.477 722.316 365.974C745.074 354.472 778.716 337.033 797.145 327.015C815.574 317.12 846.618 299.681 866.408 288.426C886.197 277.171 920.334 257.134 942.474 243.901C964.613 230.543 1002.71 207.167 1027.2 191.954C1051.69 176.618 1091.14 151.51 1115.01 136.297C1138.76 120.961 1170.55 100.43 1185.51 90.5351C1200.48 80.7643 1214.21 71.9828 1216.06 70.9934C1218.04 70.0039 1219.9 69.5092 1220.39 69.8803C1221.01 70.1276 1220.39 71.8592 1219.16 73.5907C1218.04 75.3223 1212.23 80.7643 1206.29 85.8352C1200.23 90.9062 1178.71 108.84 1158.3 125.661C1137.89 142.481 1102.27 171.299 1079.14 189.852C1056.02 208.28 1027.07 231.161 1014.83 240.685C1002.58 250.208 977.847 269.132 959.789 282.737C941.732 296.342 913.903 316.873 897.947 328.499C881.992 340.125 858.616 356.822 846 365.727L843.658 367.358C830.838 376.282 810.909 390.156 797.763 398.997C783.787 408.521 759.545 424.6 743.961 434.865C728.376 445.131 703.516 461.086 688.921 470.238C674.326 479.391 649.837 494.356 634.5 503.632C619.163 512.785 594.921 527.008 580.697 535.171C566.474 543.334 543.592 556.197 529.987 563.618C516.382 571.039 489.666 585.386 470.618 595.28C451.571 605.175 419.537 621.254 399.5 630.901C379.463 640.424 351.634 653.535 337.658 659.842C323.682 666.15 302.284 675.303 290.039 680.25C277.795 685.197 259.737 692.123 249.842 695.71C239.947 699.297 223.25 704.739 212.737 707.831C202.224 711.047 186.268 715.252 177.487 717.231C168.705 719.333 155.595 721.807 148.421 722.796C141.247 723.909 129.003 725.146 121.211 725.517C112.429 726.012 102.039 725.765 94 724.775C86.8263 724.033 76.3132 721.931 70.5 720.199C64.6868 718.591 56.1526 715.128 51.4526 712.654C46.7526 710.181 39.2079 704.739 34.8789 700.657C30.4263 696.576 23.9947 689.031 20.7789 683.96C17.4395 678.889 12.9868 670.232 10.8842 664.79C8.90526 659.348 6.18421 650.195 4.94737 644.382C3.71053 638.569 2.10263 628.427 1.36053 621.872C0.618421 615.193 0 603.196 0 595.28C0 587.241 0.618421 574.007 1.36053 565.844C1.97895 557.681 3.71053 543.458 5.07105 534.305C6.43158 525.153 9.27632 509.569 11.2553 499.674C13.3579 489.78 17.4395 472.341 20.4079 460.715C23.3763 449.089 27.7053 434.37 30.0553 427.939C32.4053 421.508 37.1053 409.263 40.5684 400.729C44.0316 392.195 50.2158 377.724 54.4211 368.572C58.6263 359.419 65.6763 344.949 70.129 336.414C74.7053 327.88 82.0026 314.894 86.3316 307.349C90.7842 299.805 100.432 284.839 107.729 273.955C115.15 263.071 125.911 248.106 131.724 240.561C137.537 233.017 148.05 220.277 155.1 212.114C162.274 203.951 176.003 189.481 185.774 179.833C195.545 170.31 209.274 157.571 216.447 151.387C223.621 145.326 236.361 135.061 244.895 128.629C253.429 122.198 268.147 111.932 277.671 105.748C287.195 99.4402 301.666 90.5351 309.829 85.9589C317.992 81.259 333.576 73.2197 344.461 67.9013C355.345 62.7067 372.537 55.0384 382.803 50.957C392.945 46.8755 410.755 40.444 422.382 36.7335C434.008 33.0231 453.674 27.3337 466.289 24.2417C478.905 21.1496 498.942 16.9445 510.816 14.9656C522.69 12.863 540.253 10.3893 549.776 9.27619Z" fill="white"/>
<path d="M1392.68 45.2675C1417.54 23.4995 1439.68 4.45254 1442.03 2.84468C1444.38 1.23682 1446.98 0 1447.97 0C1448.84 0 1449.58 0.865772 1449.58 1.85523C1449.58 2.84468 1448.34 5.56568 1446.73 7.79195C1445.25 10.1419 1427.81 30.302 1408.14 52.6884L1401.81 59.814C1382.13 81.9543 1355.05 112.425 1338.26 131.103C1319.59 151.758 1293.49 180.452 1280.26 194.799C1267.02 209.022 1247.6 229.924 1237.09 241.179C1226.45 252.434 1196.89 283.231 1171.41 309.699C1145.81 336.043 1107.34 374.756 1085.95 395.658C1064.55 416.437 1037.46 442.41 1025.96 453.417C1014.33 464.301 996.895 480.751 987 489.904C977.105 499.056 956.45 517.608 941.237 531.213C925.9 544.818 905.368 562.999 895.474 571.533C885.579 580.068 865.542 597.012 850.947 609.256C836.353 621.501 811.863 641.537 796.526 653.782C781.189 666.026 758.06 684.084 745.197 693.978C732.211 703.997 709.7 720.941 695.105 731.701C680.51 742.462 656.268 759.777 641.303 770.29C626.337 780.803 597.147 800.716 576.368 814.444C555.589 828.173 529.739 844.994 518.855 851.796C507.971 858.599 491.026 868.741 481.132 874.43C471.237 880.12 453.179 889.89 440.934 896.074C428.689 902.259 410.013 911.164 399.5 915.864C388.987 920.44 371.176 927.737 359.921 932.066C348.666 936.271 330.361 942.579 319.105 946.042C307.85 949.505 290.039 954.329 279.526 956.679C269.013 959.028 254.171 961.749 246.75 962.863C239.205 963.976 225.847 965.336 217.066 965.707C208.161 966.202 193.442 966.202 184.289 965.831C175.137 965.336 162.521 964.099 156.461 962.863C150.276 961.749 140.011 959.152 133.579 957.05C127.147 954.947 117.871 951.484 113.171 949.258C108.347 946.908 100.184 942.331 94.8658 938.868C89.6711 935.405 82.1263 929.716 78.1684 926.129C74.3342 922.666 68.15 916.358 64.4395 912.277C60.8527 908.072 54.9158 900.28 51.329 894.838C47.7421 889.396 42.7948 880.862 40.3211 875.914C37.8474 871.091 34.2605 862.928 32.2816 857.98C30.3027 853.157 27.2106 844.128 25.479 837.944C23.7474 831.76 21.0263 820.505 19.4184 812.96C17.0684 801.211 16.9448 799.108 18.5527 799.726C19.5421 800.097 27.5816 802.942 36.4869 805.91C45.2684 809.002 60.3579 813.331 69.8816 815.681C79.4053 818.031 93.8763 821.123 102.039 822.484C110.203 823.844 126.653 825.7 138.526 826.442C155.1 827.555 165.118 827.555 181.197 826.442C192.7 825.7 208.903 823.844 217.066 822.484C225.229 821 237.474 818.526 244.276 816.794C251.079 815.063 261.963 811.971 268.395 809.868C274.826 807.766 291.276 801.705 304.882 796.263C318.487 790.821 338.771 782.535 350.026 777.711C361.282 772.887 380.7 764.23 393.316 758.54C405.932 752.727 432.647 739.864 452.684 729.722C472.721 719.704 500.303 705.481 513.908 698.184C527.513 690.763 550.271 678.147 564.618 669.984C578.842 661.821 603.084 647.598 618.421 638.445C633.758 629.169 657.382 614.575 670.987 606.041C684.592 597.383 706.608 583.283 719.842 574.502C733.076 565.844 757.071 549.766 773.026 538.881C788.982 527.997 819.655 506.477 841.053 491.264C862.45 475.927 899.432 448.841 923.303 431.031C947.05 413.221 981.929 386.753 1000.61 372.282C1019.28 357.688 1051.32 332.333 1071.72 316.007C1092.13 299.681 1124.66 273.213 1144.08 257.258C1163.5 241.303 1197.39 212.98 1219.53 194.304C1241.67 175.628 1279.51 143.347 1303.63 122.569C1327.75 101.79 1367.82 67.0355 1392.68 45.2675Z" fill="white"/>
</svg>
